<?xml version="1.0" encoding="utf-8"?>
<!-- Generator: Adobe Illustrator 23.0.0, SVG Export Plug-In . SVG Version: 6.00 Build 0)  -->
<svg version="1.1" xmlns="http://www.w3.org/2000/svg" xmlns:xlink="http://www.w3.org/1999/xlink" x="0px" y="0px"
	 viewBox="0 0 2000 2000" style="enable-background:new 0 0 2000 2000;" xml:space="preserve">
<style type="text/css">
	.st0{fill:#9FD6C3;}
	.st1{fill:#F5FBF8;}
</style>
<g id="rightleg">
	<path class="st0" d="M1760.93,1911.76c-6.58,61.54-16.85,71.46-21.5,75.28c-24.19,19.84-68.62,15.92-94.15-5.08
		c-28.79,5.7-66.76,5.75-94.92,3.29c-87.53-7.64-193.01-49.21-246.61-109.36c-37.4-2.04-73.09-17.45-106.45-32.23
		c-50.72-22.48-90.05-39.91-116.65-64.37c-47.37-33.36-78.32-88.49-78.32-150.83c0-101.85,82.56-184.41,184.39-184.41
		c82.94,0,153.09,54.75,176.26,130.08c12.79,20.85,27.55,47.1,45.81,79.57c18.87,33.56,30.04,57.39,31.98,87.13
		c34.03,19.12,83.99,54.03,180.09,139.76c-2.11-47.45,1.38-76.81,24.49-95.17c29.13-23.14,81.86-22.78,107.53,2.67
		C1772.11,1807.21,1768.39,1842.06,1760.93,1911.76z"/>
</g>
<g id="laftlef">
	<path class="st0" d="M211.17,1911.76c6.58,61.54,16.85,71.46,21.5,75.28c24.19,19.84,68.62,15.92,94.15-5.08
		c28.79,5.7,66.76,5.75,94.92,3.29c87.53-7.64,193.01-49.21,246.61-109.36c37.4-2.04,73.09-17.45,106.45-32.23
		c50.72-22.48,90.05-39.91,116.65-64.37c47.37-33.36,78.32-88.49,78.32-150.83c0-101.85-82.56-184.41-184.39-184.41
		c-82.94,0-153.09,54.75-176.26,130.08c-12.79,20.85-27.55,47.1-45.81,79.57c-18.87,33.56-30.04,57.39-31.98,87.13
		c-34.03,19.12-83.99,54.03-180.09,139.76c2.11-47.45-1.38-76.81-24.49-95.17c-29.13-23.14-81.86-22.78-107.53,2.67
		C199.99,1807.21,203.71,1842.06,211.17,1911.76z"/>
</g>
<g id="body">
	<path class="st0" d="M854.02,1802.4c0.1,0.1,0.22,0.18,0.32,0.28h-0.32V1802.4z"/>
	<path class="st0" d="M1115.32,1802.69c0.1-0.1,0.22-0.18,0.32-0.28v0.28H1115.32z"/>
	<circle class="st0" cx="785.38" cy="1628.46" r="184.4"/>
	<path class="st0" d="M1366.68,1357.7h-14.87c-50.72,65.73-195.85,113.2-366.98,113.2s-316.26-47.47-366.98-113.2h-14.87
		c12.81-84.09,52.75-159.28,110.6-216.32c-15.9-36.3-24.71-76.39-24.71-118.55c0-104.71,54.38-196.72,136.46-249.34V690.1
		c-120.77-59.08-203.94-183.16-203.94-326.66C621.38,162.72,784.1,0,984.82,0s363.44,162.72,363.44,363.44
		c0,143.5-83.17,267.58-203.94,326.66v83.39c82.08,52.62,136.46,144.63,136.46,249.34c0,42.15-8.81,82.24-24.71,118.55
		C1313.93,1198.41,1353.87,1273.61,1366.68,1357.7z"/>
	<path class="st1" d="M1371.11,1416.4c0,46.31-8.14,90.7-23.06,131.84c-130.21,11.65-232.27,120.97-232.42,254.17
		c-0.1,0.1-0.22,0.18-0.32,0.28c-34.39,31.48-80.2,50.69-130.49,50.69c-50.29,0-96.1-19.21-130.49-50.69
		c-0.1-0.1-0.22-0.18-0.32-0.28c-0.15-133.2-102.21-242.52-232.42-254.17c-14.92-41.14-23.06-85.53-23.06-131.84
		c0-19.95,1.51-39.56,4.44-58.7h14.87c50.72,65.73,195.85,113.2,366.98,113.2s316.26-47.47,366.98-113.2h14.87
		C1369.6,1376.84,1371.11,1396.44,1371.11,1416.4z"/>
</g>
<g id="rifht_arm">
	<path class="st0" d="M1642.42,682.3c-20.6,12.28-44.15,18.74-67.72,19.99c1.38,14.69,1.06,28.98-0.38,40.94
		c-9.2,76.58-74.43,141.14-139.46,169.29c-16.78,38.86-45.18,78.45-79.17,106.7c-12.34,10.27-133.13,107.73-229.4,43.02
		c-66.24-44.54-87.19-143.28-53.76-204.31c32.05-58.45,105.04-65.99,215.86-74.27c17.96-72.04,88.01-135.33,152.87-160.98
		c-29.77-86.51,29.03-218,111.57-234.28c49.91-9.85,101.93,23.71,129.03,60.93C1732.48,518.87,1720.97,635.49,1642.42,682.3z"/>
</g>
<g id="left_arm">
	<path class="st0" d="M340.77,682.3c20.6,12.28,44.14,18.74,67.72,19.99c-1.38,14.69-1.06,28.98,0.38,40.94
		c9.2,76.58,74.43,141.14,139.46,169.29c16.78,38.86,45.18,78.45,79.17,106.7c12.34,10.27,133.13,107.73,229.4,43.02
		c66.24-44.54,87.19-143.28,53.76-204.31c-32.05-58.45-105.04-65.99-215.86-74.27c-17.96-72.04-88.01-135.33-152.87-160.98
		c29.77-86.51-29.03-218-111.57-234.28c-49.91-9.85-101.93,23.71-129.03,60.93C250.7,518.87,262.21,635.49,340.77,682.3z"/>
</g>
</svg>
