<?xml version="1.0" encoding="utf-8"?>
<!-- Generator: Adobe Illustrator 23.0.0, SVG Export Plug-In . SVG Version: 6.00 Build 0)  -->
<svg version="1.1" xmlns="http://www.w3.org/2000/svg" xmlns:xlink="http://www.w3.org/1999/xlink" x="0px" y="0px"
	 viewBox="0 0 100 100" style="enable-background:new 0 0 100 100;" xml:space="preserve">
<style type="text/css">
	.st0{fill:#FFFFFF;}
</style>
<g id="Layer_1">
</g>
<g id="Layer_2">
	<path class="st0" d="M55.79,21.79l24.26,24.26l-3.38,3.38L60.05,66.04c-2.61,2.6-6.82,2.6-9.44,0l-3.9-3.9
		c1.36-0.92,2.25-2.46,2.25-4.21c0-0.44-0.06-0.86-0.17-1.27c-0.45-1.78-1.85-3.18-3.63-3.63c-0.41-0.11-0.83-0.17-1.27-0.17
		c-1.75,0-3.29,0.89-4.21,2.25l-3.9-3.9c-2.6-2.61-2.6-6.82,0-9.44l16.62-16.61L55.79,21.79z"/>
	<polygon class="st0" points="88.58,37.52 85.94,40.15 84.84,41.26 60.58,17 61.65,15.92 64.32,13.26 	"/>
	<path class="st0" d="M99.95,23.34c-2.68,2.88-5.51,6.15-8.61,9.97L67.8,9.77l9.3-9.28L99.95,23.34z"/>
	<path class="st0" d="M67.39,38.07L48.79,56.66c-0.45-1.78-1.85-3.18-3.63-3.63l18.59-18.59L67.39,38.07z"/>
	<path class="st0" d="M80.9,46.89c-0.94,1.25-1.88,2.57-2.85,3.91c-7.29,10.17-15.87,22.88-26.22,39.1
		c-14.84-1.35-30.4,2.88-46.33,10.05l37.14-37.14c0.41,0.13,0.81,0.17,1.25,0.17c1.03,0,2.02-0.31,2.82-0.85
		c1.36-0.92,2.25-2.46,2.25-4.21c0-0.44-0.06-0.86-0.17-1.27c-0.45-1.78-1.85-3.18-3.63-3.63c-0.41-0.11-0.83-0.17-1.27-0.17
		c-1.75,0-3.29,0.89-4.21,2.25c-0.53,0.8-0.85,1.78-0.85,2.82c0,0.44,0.05,0.85,0.17,1.25L2.59,95.6
		c6.2-13.07,9.83-27.89,9.33-45.61c14.68-8.62,27.75-17.28,39.35-25.97c1.3-0.99,2.58-1.96,3.83-2.93L80.9,46.89z"/>
	<path class="st0" d="M64.57,13.51l23.67,23.67c-0.75,0.95-1.52,1.96-2.3,2.97c-0.31,0.41-0.63,0.83-0.95,1.25l-0.14-0.14
		L60.46,16.87c0.41-0.31,0.8-0.64,1.19-0.95C62.63,15.12,63.6,14.31,64.57,13.51z"/>
	<path class="st0" d="M99.95,23.34c-2.68,2.88-5.51,6.15-8.61,9.97L68.34,10.31c3.4-2.94,6.65-5.89,9.75-8.83L99.95,23.34z"/>
	<path class="st0" d="M80.9,46.89c-0.94,1.25-1.88,2.57-2.85,3.91l-1.38-1.38L66.36,39.11l-3.63-3.63L52.41,25.17l-1.14-1.14
		c1.3-0.99,2.58-1.96,3.83-2.93L80.9,46.89z"/>
	<path class="st0" d="M99.95,23.34c-2.68,2.88-5.51,6.15-8.61,9.97L67.37,9.34l9.28-9.3L99.95,23.34z"/>
	<polygon class="st0" points="96.61,45.55 92.87,49.29 84.98,41.4 84.84,41.26 52.54,8.95 56.28,5.21 	"/>
	<polygon class="st0" points="96.61,45.55 92.87,49.29 84.98,41.4 84.84,41.26 52.54,8.95 56.28,5.21 	"/>
	<path class="st0" d="M99.95,23.34c-2.68,2.88-5.51,6.15-8.61,9.97L67.37,9.34l9.28-9.3L99.95,23.34z"/>
	<polygon class="st0" points="96.61,45.55 92.87,49.29 84.98,41.4 84.84,41.26 52.54,8.95 56.28,5.21 	"/>
	<path class="st0" d="M99.95,23.34c-2.68,2.88-5.51,6.15-8.61,9.97L67.37,9.34l9.28-9.3L99.95,23.34z"/>
	<path class="st0" d="M99.95,23.34c-2.68,2.88-5.51,6.15-8.61,9.97L67.37,9.34l9.28-9.3L99.95,23.34z"/>
	<path class="st0" d="M99.95,23.34c-2.68,2.88-5.51,6.15-8.61,9.97L67.37,9.34l9.28-9.3L99.95,23.34z"/>
</g>
</svg>
