<?xml version="1.0" encoding="utf-8"?>
<!-- Generator: Adobe Illustrator 23.0.1, SVG Export Plug-In . SVG Version: 6.00 Build 0)  -->
<svg version="1.1" id="Layer_1" xmlns="http://www.w3.org/2000/svg" xmlns:xlink="http://www.w3.org/1999/xlink" x="0px" y="0px"
	 viewBox="0 0 100 100" style="enable-background:new 0 0 100 100;" xml:space="preserve">
<style type="text/css">
	.st0{fill:#E7AA23;}
</style>
<g>
	<path class="st0" d="M55.8,21.8l24.3,24.3l-3.4,3.4L60,66c-2.6,2.6-6.8,2.6-9.4,0l-3.9-3.9c1.4-0.9,2.3-2.5,2.3-4.2
		c0-0.4-0.1-0.9-0.2-1.3c-0.5-1.8-1.8-3.2-3.6-3.6c-0.4-0.1-0.8-0.2-1.3-0.2c-1.8,0-3.3,0.9-4.2,2.3l-3.9-3.9
		c-2.6-2.6-2.6-6.8,0-9.4l16.6-16.6L55.8,21.8z"/>
	<polygon class="st0" points="88.6,37.5 85.9,40.2 84.8,41.3 60.6,17 61.7,15.9 64.3,13.3 	"/>
	<path class="st0" d="M99.9,23.3c-2.7,2.9-5.5,6.1-8.6,10L67.8,9.8l9.3-9.3L99.9,23.3z"/>
	<path class="st0" d="M67.4,38.1L48.8,56.7c-0.5-1.8-1.8-3.2-3.6-3.6l18.6-18.6L67.4,38.1z"/>
	<path class="st0" d="M80.9,46.9c-0.9,1.3-1.9,2.6-2.8,3.9C70.8,61,62.2,73.7,51.8,89.9C37,88.5,21.4,92.8,5.5,99.9l37.1-37.1
		c0.4,0.1,0.8,0.2,1.3,0.2c1,0,2-0.3,2.8-0.8c1.4-0.9,2.3-2.5,2.3-4.2c0-0.4-0.1-0.9-0.2-1.3c-0.5-1.8-1.8-3.2-3.6-3.6
		c-0.4-0.1-0.8-0.2-1.3-0.2c-1.8,0-3.3,0.9-4.2,2.3c-0.5,0.8-0.8,1.8-0.8,2.8c0,0.4,0,0.8,0.2,1.3L2.6,95.6
		c6.2-13.1,9.8-27.9,9.3-45.6c14.7-8.6,27.7-17.3,39.3-26c1.3-1,2.6-2,3.8-2.9L80.9,46.9z"/>
	<path class="st0" d="M64.6,13.5l23.7,23.7c-0.8,1-1.5,2-2.3,3c-0.3,0.4-0.6,0.8-0.9,1.3l-0.1-0.1L60.5,16.9
		c0.4-0.3,0.8-0.6,1.2-0.9C62.6,15.1,63.6,14.3,64.6,13.5z"/>
	<path class="st0" d="M99.9,23.3c-2.7,2.9-5.5,6.1-8.6,10l-23-23c3.4-2.9,6.7-5.9,9.8-8.8L99.9,23.3z"/>
	<path class="st0" d="M80.9,46.9c-0.9,1.3-1.9,2.6-2.8,3.9l-1.4-1.4L66.4,39.1l-3.6-3.6L52.4,25.2L51.3,24c1.3-1,2.6-2,3.8-2.9
		L80.9,46.9z"/>
	<path class="st0" d="M99.9,23.3c-2.7,2.9-5.5,6.1-8.6,10l-24-24L76.7,0L99.9,23.3z"/>
	<polygon class="st0" points="96.6,45.5 92.9,49.3 85,41.4 84.8,41.3 52.5,8.9 56.3,5.2 	"/>
	<polygon class="st0" points="96.6,45.5 92.9,49.3 85,41.4 84.8,41.3 52.5,8.9 56.3,5.2 	"/>
	<path class="st0" d="M99.9,23.3c-2.7,2.9-5.5,6.1-8.6,10l-24-24L76.7,0L99.9,23.3z"/>
	<polygon class="st0" points="96.6,45.5 92.9,49.3 85,41.4 84.8,41.3 52.5,8.9 56.3,5.2 	"/>
	<path class="st0" d="M99.9,23.3c-2.7,2.9-5.5,6.1-8.6,10l-24-24L76.7,0L99.9,23.3z"/>
	<path class="st0" d="M99.9,23.3c-2.7,2.9-5.5,6.1-8.6,10l-24-24L76.7,0L99.9,23.3z"/>
	<path class="st0" d="M99.9,23.3c-2.7,2.9-5.5,6.1-8.6,10l-24-24L76.7,0L99.9,23.3z"/>
</g>
</svg>
