<?xml version="1.0" encoding="utf-8"?>
<!-- Generator: Adobe Illustrator 23.0.1, SVG Export Plug-In . SVG Version: 6.00 Build 0)  -->
<svg version="1.1" id="Layer_1" xmlns="http://www.w3.org/2000/svg" xmlns:xlink="http://www.w3.org/1999/xlink" x="0px" y="0px"
	 viewBox="0 0 50 50" style="enable-background:new 0 0 50 50;" xml:space="preserve">
<style type="text/css">
	.st0{fill:#FFFFFF;}
	.st1{fill:#B6B6B6;}
</style>
<rect x="0.1" class="st0" width="49.9" height="49.9"/>
<circle class="st1" cx="25.1" cy="25" r="25"/>
<g>
	<path class="st0" d="M40.8,23.2c0,1.9-0.3,3.6-0.9,5.1c-0.6,1.5-1.4,2.7-2.5,3.6c-1.1,0.9-2.3,1.3-3.7,1.3c-1,0-1.9-0.3-2.7-0.8
		c-0.8-0.5-1.3-1.3-1.5-2.2h-0.2c-0.6,1-1.4,1.8-2.4,2.3c-0.9,0.5-2,0.8-3.2,0.8c-2.1,0-3.8-0.7-5-2.1S17,27.9,17,25.6
		c0-2.7,0.8-4.9,2.4-6.5c1.6-1.7,3.8-2.5,6.5-2.5c1,0,2.1,0.1,3.3,0.3c1.2,0.2,2.3,0.4,3.2,0.7L32,26.7v0.5c0,2.1,0.7,3.1,2,3.1
		c1,0,1.8-0.7,2.5-2s0.9-3,0.9-5.1c0-2.2-0.5-4.2-1.4-5.9c-0.9-1.7-2.2-3-3.9-3.9c-1.7-0.9-3.6-1.4-5.8-1.4c-2.8,0-5.2,0.6-7.2,1.7
		s-3.6,2.8-4.7,4.9s-1.6,4.6-1.6,7.4c0,3.8,1,6.7,3,8.7s4.9,3.1,8.7,3.1c2.9,0,5.9-0.6,9-1.8v3.2c-2.7,1.1-5.7,1.7-8.9,1.7
		c-4.8,0-8.6-1.3-11.3-3.9s-4-6.2-4-10.9c0-3.4,0.7-6.4,2.2-9.1s3.5-4.7,6.1-6.1s5.5-2.1,8.8-2.1c2.8,0,5.3,0.6,7.6,1.8
		s3.9,2.8,5.1,5C40.2,17.9,40.8,20.4,40.8,23.2z M20.7,25.7c0,3,1.2,4.6,3.6,4.6c2.5,0,3.9-1.9,4.1-5.7l0.2-4.7
		c-0.8-0.2-1.7-0.3-2.6-0.3c-1.7,0-3,0.6-3.9,1.7C21.2,22.3,20.7,23.8,20.7,25.7z"/>
</g>
</svg>
