<?xml version="1.0" encoding="utf-8"?>
<!-- Generator: Adobe Illustrator 23.0.1, SVG Export Plug-In . SVG Version: 6.00 Build 0)  -->
<svg version="1.1" id="Layer_1" xmlns="http://www.w3.org/2000/svg" xmlns:xlink="http://www.w3.org/1999/xlink" x="0px" y="0px"
	 viewBox="0 0 50 50" style="enable-background:new 0 0 50 50;" xml:space="preserve">
<style type="text/css">
	.st0{fill:#FFFFFF;}
	.st1{fill:#B6B6B6;}
	.st2{fill:none;stroke:#FFFFFF;stroke-width:3;stroke-miterlimit:10;}
</style>
<rect x="0.1" class="st0" width="49.9" height="49.9"/>
<circle class="st1" cx="25" cy="25" r="25"/>
<path class="st2" d="M33.9,39.3H16.7c-3.2,0-5.7-2.6-5.7-5.7V16.4c0-3.2,2.6-5.7,5.7-5.7h17.2c3.2,0,5.7,2.6,5.7,5.7v17.2
	C39.6,36.7,37.1,39.3,33.9,39.3z"/>
<g>
	<path class="st0" d="M30.2,26.3h-4.3v14.6h-5V26.3h-2.8v-2.4l2.8-1.4v-1.4c0-2.1,0.5-3.6,1.5-4.6c1-1,2.7-1.4,5-1.4
		c1.7,0,3.3,0.3,4.6,0.8l-1.3,3.7c-1-0.3-1.9-0.5-2.8-0.5c-0.7,0-1.2,0.2-1.5,0.6c-0.3,0.4-0.5,1-0.5,1.6v1.2h4.3V26.3z"/>
</g>
</svg>
