<?xml version="1.0" encoding="utf-8"?>
<!-- Generator: Adobe Illustrator 23.0.1, SVG Export Plug-In . SVG Version: 6.00 Build 0)  -->
<svg version="1.1" id="Layer_1" xmlns="http://www.w3.org/2000/svg" xmlns:xlink="http://www.w3.org/1999/xlink" x="0px" y="0px"
	 viewBox="0 0 50 50" style="enable-background:new 0 0 50 50;" xml:space="preserve">
<style type="text/css">
	.st0{fill:#FFFFFF;}
	.st1{fill:#B6B6B6;}
	.st2{fill:none;stroke:#FFFFFF;stroke-width:3;stroke-miterlimit:10;}
</style>
<rect x="0.1" class="st0" width="49.9" height="49.9"/>
<circle class="st1" cx="25" cy="25" r="25"/>
<path class="st2" d="M33.9,39.3H16.7c-3.2,0-5.7-2.6-5.7-5.7V16.4c0-3.2,2.6-5.7,5.7-5.7h17.2c3.2,0,5.7,2.6,5.7,5.7v17.2
	C39.6,36.7,37.1,39.3,33.9,39.3z"/>
<g>
	<path class="st0" d="M15.1,17.3c0-1.2,0.7-1.8,2-1.8s2,0.6,2,1.8c0,0.6-0.2,1-0.5,1.4c-0.3,0.3-0.8,0.5-1.5,0.5
		C15.8,19.1,15.1,18.5,15.1,17.3z M19,34.5h-3.7V20.8H19V34.5z"/>
	<path class="st0" d="M35.5,34.5h-3.7v-8c0-1-0.2-1.7-0.5-2.2s-0.9-0.7-1.7-0.7c-1,0-1.8,0.3-2.3,1c-0.5,0.7-0.7,1.9-0.7,3.5v6.4
		h-3.7V20.8h2.8l0.5,1.7h0.2c0.4-0.7,1-1.2,1.7-1.5c0.7-0.3,1.6-0.5,2.5-0.5c1.6,0,2.8,0.4,3.6,1.3c0.8,0.9,1.2,2.1,1.2,3.7V34.5z"
		/>
</g>
</svg>
