<?xml version="1.0" encoding="utf-8"?>
<!-- Generator: Adobe Illustrator 23.0.0, SVG Export Plug-In . SVG Version: 6.00 Build 0)  -->
<svg version="1.1" id="Layer_2" xmlns="http://www.w3.org/2000/svg" xmlns:xlink="http://www.w3.org/1999/xlink" x="0px" y="0px"
	 viewBox="0 0 100 100" style="enable-background:new 0 0 100 100;" xml:space="preserve">
<style type="text/css">
	.st0{fill:#FFFFFF;}
</style>
<rect x="65.31" y="65.31" class="st0" width="22.84" height="22.84"/>
<path class="st0" d="M53.47,53.47V100H100V53.47H53.47z M92.41,92.41H61.06V61.06h31.35V92.41z"/>
<rect x="11.85" y="65.31" class="st0" width="22.84" height="22.84"/>
<path class="st0" d="M0,53.47V100h46.53V53.47H0z M38.94,92.41H7.59V61.06h31.35V92.41z"/>
<rect x="37.08" y="22.9" class="st0" width="22.84" height="22.85"/>
<path class="st0" d="M23.27,3v50.47h50.46V3H23.27z M64.17,50H32.82V18.65h31.35V50z"/>
<polygon class="st0" points="5.97,20.31 23.27,20.31 23.27,3 14.62,11.65 "/>
<polygon class="st0" points="73.73,20.31 91.03,20.31 82.38,11.65 73.73,3 "/>
<rect x="37.08" y="22.9" class="st0" width="22.84" height="22.85"/>
<rect x="37.08" y="22.9" class="st0" width="22.84" height="22.85"/>
<rect x="65.31" y="65.31" class="st0" width="22.84" height="22.84"/>
<rect x="65.31" y="65.31" class="st0" width="22.84" height="22.84"/>
<rect x="11.85" y="65.31" class="st0" width="22.84" height="22.84"/>
<rect x="11.85" y="65.31" class="st0" width="22.84" height="22.84"/>
</svg>
